<svg version="1.0" xmlns="http://www.w3.org/2000/svg"
 width="512.000000pt" height="512.000000pt" viewBox="0 0 512.000000 512.000000"
 preserveAspectRatio="xMidYMid meet">

<g transform="translate(0.000000,512.000000) scale(0.100000,-0.100000)"
fill="current" stroke="none">
<path d="M1400 4490 c-624 -346 -1140 -637 -1147 -646 -20 -28 -16 -72 10 -97
13 -12 244 -143 515 -292 270 -148 491 -272 491 -275 0 -3 -221 -126 -491
-275 -271 -148 -502 -280 -515 -292 -30 -29 -30 -77 0 -106 13 -12 244 -143
515 -292 270 -148 491 -272 491 -275 0 -3 -221 -126 -491 -275 -271 -148 -502
-280 -515 -292 -28 -27 -30 -73 -5 -101 24 -27 2276 -1272 2302 -1272 27 0
2279 1244 2303 1272 24 28 22 74 -6 101 -12 12 -244 144 -514 292 -271 149
-492 272 -492 275 0 3 221 127 492 275 270 149 502 280 514 292 24 23 30 62
13 93 -5 10 -235 143 -510 295 -275 153 -500 281 -500 285 0 4 225 132 500
285 275 152 505 285 510 295 15 28 12 65 -7 88 -26 30 -2278 1272 -2305 1271
-13 0 -534 -283 -1158 -629z m1358 350 c105 -58 192 -107 192 -110 0 -3 -88
-53 -195 -112 l-195 -107 -195 107 c-107 59 -194 109 -194 112 0 6 382 218
390 216 3 0 92 -48 197 -106z m-560 -310 c105 -58 191 -107 191 -110 0 -3 -87
-53 -194 -111 l-195 -107 -195 107 c-107 58 -194 108 -194 111 0 6 382 218
389 216 3 0 92 -48 198 -106z m1120 0 c105 -58 192 -107 192 -110 0 -3 -88
-53 -195 -112 l-195 -106 -196 108 c-172 95 -194 110 -178 120 62 38 370 208
375 206 3 0 92 -48 197 -106z m-1680 -310 c105 -58 192 -107 192 -110 0 -3
-88 -53 -195 -112 l-194 -106 -195 106 c-107 59 -195 109 -195 112 0 6 382
218 389 216 3 0 92 -48 198 -106z m1120 0 c105 -58 191 -107 191 -110 0 -3
-87 -53 -194 -111 l-195 -107 -195 107 c-107 58 -194 108 -194 111 0 6 382
218 389 216 3 0 92 -48 198 -106z m1120 0 c105 -58 192 -107 192 -110 -1 -3
-88 -53 -195 -111 l-195 -107 -195 107 c-107 58 -194 108 -194 111 0 6 382
218 390 216 3 0 92 -48 197 -106z m-2800 -310 c105 -58 192 -107 192 -110 0
-3 -88 -53 -195 -111 l-195 -107 -195 107 c-107 58 -194 108 -194 111 0 6 382
218 390 216 3 0 91 -48 197 -106z m1120 0 c105 -58 191 -107 191 -110 0 -3
-87 -53 -194 -111 l-195 -107 -195 107 c-107 58 -194 108 -194 111 0 6 382
218 389 216 3 0 92 -48 198 -106z m1120 0 c105 -58 191 -107 191 -110 0 -3
-87 -53 -194 -111 l-195 -107 -195 107 c-107 58 -194 108 -194 111 0 6 382
218 389 216 3 0 92 -48 198 -106z m1120 0 c105 -58 192 -107 192 -110 0 -3
-88 -53 -195 -112 l-195 -106 -195 106 c-107 59 -195 109 -195 112 0 6 383
218 391 216 3 0 92 -48 197 -106z m-2800 -310 c105 -58 192 -107 192 -110 -1
-3 -88 -53 -195 -111 l-195 -107 -195 107 c-107 58 -194 108 -194 111 0 6 382
218 390 216 3 0 91 -48 197 -106z m1120 0 c105 -58 192 -107 191 -110 0 -3
-87 -53 -194 -111 l-195 -107 -195 107 c-107 58 -194 108 -194 111 0 6 382
218 390 216 3 0 91 -48 197 -106z m1120 0 c105 -58 191 -107 191 -110 0 -3
-87 -53 -194 -112 l-194 -106 -195 106 c-107 59 -195 109 -195 112 -1 6 382
218 389 216 3 0 92 -48 198 -106z m-1680 -310 c105 -58 192 -107 191 -110 0
-3 -87 -53 -194 -111 l-195 -107 -195 107 c-107 58 -194 108 -194 111 -1 6
382 218 390 216 3 0 92 -48 197 -106z m1120 0 c105 -58 192 -107 192 -110 0
-3 -88 -53 -195 -112 l-195 -107 -172 96 c-95 52 -184 102 -197 110 -23 15
-19 18 170 123 107 59 196 107 200 106 3 0 91 -48 197 -106z m-1329 -505 c303
-168 560 -305 571 -305 11 0 268 137 571 304 l550 304 474 -261 c261 -144 474
-264 474 -267 0 -3 -465 -262 -1034 -577 l-1034 -571 -1035 571 c-569 315
-1035 574 -1035 577 0 3 212 123 472 266 260 144 473 262 474 263 0 1 249
-136 552 -304z m769 195 c105 -58 192 -107 192 -110 0 -3 -88 -53 -195 -112
l-195 -107 -172 96 c-95 52 -184 102 -197 110 -23 15 -19 18 170 123 107 59
197 107 200 106 3 0 92 -48 197 -106z m-1120 -1240 c105 -58 192 -107 192
-110 -1 -3 -214 -123 -475 -267 l-475 -261 -194 106 c-108 59 -195 109 -195
112 0 6 942 528 950 526 3 0 92 -48 197 -106z m2240 0 c105 -58 192 -107 191
-110 0 -3 -465 -262 -1034 -577 l-1035 -571 -195 106 c-107 59 -194 109 -194
112 0 3 255 146 567 318 312 172 776 429 1032 571 256 142 468 258 471 257 3
0 92 -48 197 -106z m-1680 -310 c105 -58 192 -107 191 -110 0 -3 -213 -123
-474 -267 l-475 -261 -188 104 c-103 57 -191 106 -197 109 -7 3 -7 7 0 10 6 3
219 122 475 264 256 142 468 258 471 257 3 0 92 -48 197 -106z m2240 0 c105
-58 192 -107 191 -110 0 -3 -465 -262 -1034 -577 l-1035 -571 -186 103 c-102
57 -190 107 -194 112 -7 7 2047 1153 2061 1149 3 0 92 -48 197 -106z"/>
</g>
</svg>
