<?xml version="1.0" standalone="no"?>
<!DOCTYPE svg PUBLIC "-//W3C//DTD SVG 20010904//EN"
 "http://www.w3.org/TR/2001/REC-SVG-20010904/DTD/svg10.dtd">
<svg fill="current" version="1.0" xmlns="http://www.w3.org/2000/svg"
 width="980.000000pt" height="952.000000pt" viewBox="0 0 980.000000 952.000000"
 preserveAspectRatio="xMidYMid meet">

<g transform="translate(0.000000,952.000000) scale(0.100000,-0.100000)"
fill="#000000" stroke="none">
<path d="M3665 9513 c-274 -38 -540 -237 -651 -489 -64 -145 -67 -168 -72
-551 l-4 -353 -1347 0 c-1535 0 -1416 7 -1507 -84 -79 -80 -102 -173 -68 -286
22 -74 100 -152 174 -174 49 -15 492 -16 4711 -16 4301 0 4661 1 4708 17 66
21 125 72 159 137 22 42 27 63 26 126 0 113 -50 197 -148 248 l-51 27 -1367 3
-1368 2 0 309 c0 232 -4 330 -15 396 -30 169 -106 314 -230 440 -129 132 -291
217 -465 244 -62 10 -2414 14 -2485 4z m2483 -588 c59 -32 91 -66 125 -129 21
-39 22 -53 25 -358 l3 -318 -1401 0 -1401 0 3 318 3 317 27 51 c36 69 100 121
178 145 14 4 556 7 1205 6 l1180 -2 53 -30z"/>
<path d="M1726 7264 c-34 -11 -64 -31 -102 -68 -93 -94 -84 236 -84 -3160 0
-3275 -3 -3089 56 -3265 29 -86 91 -214 136 -279 138 -201 353 -361 584 -437
174 -57 69 -55 2584 -55 1482 0 2340 4 2385 10 292 42 549 187 729 412 76 94
153 237 191 354 58 176 55 8 55 3265 0 3390 9 3062 -84 3155 -114 113 -278
113 -392 0 -93 -93 -84 233 -84 -3141 0 -2072 -3 -2999 -11 -3041 -35 -194
-186 -361 -389 -430 -53 -18 -135 -19 -2405 -19 l-2350 0 -59 22 c-150 57
-263 157 -326 286 -21 45 -43 109 -49 141 -8 42 -11 969 -11 3041 0 3374 9
3048 -84 3141 -80 79 -178 102 -290 68z"/>
<path d="M3406 6144 c-34 -11 -64 -31 -102 -68 -92 -93 -84 110 -84 -2156 0
-2265 -8 -2063 84 -2156 113 -112 278 -112 391 1 93 92 85 -114 85 2154 0
2266 8 2064 -84 2157 -80 79 -178 102 -290 68z"/>
<path d="M4806 6144 c-34 -11 -64 -31 -102 -68 -92 -93 -84 110 -84 -2156 0
-2265 -8 -2063 84 -2156 113 -112 278 -112 391 1 93 92 85 -114 85 2154 0
2266 8 2064 -84 2157 -80 79 -178 102 -290 68z"/>
<path d="M6206 6144 c-34 -11 -64 -31 -102 -68 -92 -93 -84 110 -84 -2156 0
-2265 -8 -2063 84 -2156 113 -112 278 -112 391 1 93 92 85 -114 85 2154 0
2266 8 2064 -84 2157 -80 79 -178 102 -290 68z"/>
</g>
</svg>
